<?xml version="1.0" encoding="iso-8859-1"?>
<!-- Generator: Adobe Illustrator 19.0.0, SVG Export Plug-In . SVG Version: 6.00 Build 0)  -->
<svg version="1.1" id="Layer_1" xmlns="http://www.w3.org/2000/svg" xmlns:xlink="http://www.w3.org/1999/xlink" x="0px" y="0px"
	 viewBox="0 0 512 512" style="enable-background:new 0 0 512 512;" xml:space="preserve">
<g>
	<g>
		<path d="M288,96V16c0-8.832-7.152-16-16-16H112c-8.848,0-16,7.168-16,16v80c-17.648,0-32,14.352-32,32v352
			c0,17.648,14.352,32,32,32h112v-32H96V352h48v-32H96v-96h192h16h16v-96C320,110.352,305.648,96,288,96z M128,32h48v48h32V32h48v64
			H128V32z M288,192H96v-64h192V192z"/>
	</g>
</g>
<g>
	<g>
		<path d="M320,256c-70.576,0-128,57.424-128,128s57.424,128,128,128s128-57.424,128-128S390.576,256,320,256z M320,480
			c-52.944,0-96-43.056-96-96c0-52.944,43.056-96,96-96c52.944,0,96,43.056,96,96C416,436.944,372.944,480,320,480z"/>
	</g>
</g>
<g>
	<g>
		<polygon points="336,368 336,320 304,320 304,368 256,368 256,400 304,400 304,448 336,448 336,400 384,400 384,368 		"/>
	</g>
</g>
<g>
</g>
<g>
</g>
<g>
</g>
<g>
</g>
<g>
</g>
<g>
</g>
<g>
</g>
<g>
</g>
<g>
</g>
<g>
</g>
<g>
</g>
<g>
</g>
<g>
</g>
<g>
</g>
<g>
</g>
</svg>
